<?xml version="1.0" encoding="UTF-8"?>
<svg width="20px" height="20px" viewBox="0 0 20 20" version="1.1" xmlns="http://www.w3.org/2000/svg" xmlns:xlink="http://www.w3.org/1999/xlink">
    <!-- Generator: Sketch 48.2 (47327) - http://www.bohemiancoding.com/sketch -->
    <title>@</title>
    <desc>Created with Sketch.</desc>
    <defs></defs>
    <g id="PC（JP）" stroke="none" stroke-width="1" fill="none" fill-rule="evenodd" transform="translate(-711.000000, -323.000000)">
        <g id="Firstview" fill="#FFFFFF">
            <g id="content" transform="translate(383.000000, 168.000000)">
                <g id="content__info" transform="translate(114.000000, 147.000000)">
                    <path d="M223.40625,14.7460938 C222.624996,14.7460938 222.013674,15.0351534 221.572266,15.6132812 C221.130857,16.1914091 220.910156,16.9921824 220.910156,18.015625 C220.910156,19.0312551 221.130857,19.8320283 221.572266,20.4179688 C222.013674,21.0039092 222.617184,21.296875 223.382812,21.296875 C224.187504,21.296875 224.828123,21.000003 225.304688,20.40625 C225.781252,19.812497 226.019531,19.01563 226.019531,18.015625 C226.019531,17.01562 225.783205,16.2207061 225.310547,15.6308594 C224.837888,15.0410127 224.203129,14.7460938 223.40625,14.7460938 Z M223.816406,8.18359375 C226.542982,8.18359375 228.791007,8.97460146 230.560547,10.5566406 C232.330087,12.1386798 233.214844,14.2226433 233.214844,16.8085938 C233.214844,18.6836031 232.824223,20.1933537 232.042969,21.3378906 C231.261715,22.4824276 230.183601,23.0546875 228.808594,23.0546875 C228.144528,23.0546875 227.558596,22.8730487 227.050781,22.5097656 C226.542966,22.1464826 226.253907,21.6718779 226.183594,21.0859375 L226.089844,21.0859375 C225.558591,22.3281312 224.566414,22.9492188 223.113281,22.9492188 C221.894525,22.9492188 220.91016,22.490239 220.160156,21.5722656 C219.410153,20.6542923 219.035156,19.4531324 219.035156,17.96875 C219.035156,16.5468679 219.414059,15.3847701 220.171875,14.4824219 C220.929691,13.5800736 221.91015,13.1289062 223.113281,13.1289062 C223.738284,13.1289062 224.312497,13.2792954 224.835938,13.5800781 C225.359378,13.8808609 225.730468,14.2812475 225.949219,14.78125 L226.042969,14.78125 L226.042969,13.3515625 L227.8125,13.3515625 L227.8125,20.2304688 C227.8125,20.6132832 227.919921,20.92578 228.134766,21.1679688 C228.34961,21.4101575 228.683591,21.53125 229.136719,21.53125 C229.832035,21.53125 230.410154,21.1191447 230.871094,20.2949219 C231.332034,19.470699 231.5625,18.3007888 231.5625,16.7851562 C231.5625,14.6601456 230.830085,12.9414128 229.365234,11.6289062 C227.900383,10.3163997 226.000012,9.66015625 223.664062,9.66015625 C222.14843,9.66015625 220.796881,10.0175746 219.609375,10.7324219 C218.421869,11.4472692 217.488285,12.4335875 216.808594,13.6914062 C216.128903,14.949225 215.789062,16.3945231 215.789062,18.0273438 C215.789062,20.683607 216.576164,22.7187429 218.150391,24.1328125 C219.724617,25.5468821 221.687488,26.2539062 224.039062,26.2539062 C224.828129,26.2539062 225.583981,26.2031255 226.306641,26.1015625 C227.0293,25.9999995 227.582029,25.8632821 227.964844,25.6914062 L227.964844,27.1679688 C226.878901,27.5507832 225.562508,27.7421875 224.015625,27.7421875 C222.109365,27.7421875 220.412117,27.3652381 218.923828,26.6113281 C217.435539,25.8574181 216.265629,24.7519604 215.414062,23.2949219 C214.562496,21.8378833 214.136719,20.0586043 214.136719,17.9570312 C214.136719,16.0038965 214.548824,14.2949292 215.373047,12.8300781 C216.19727,11.3652271 217.33593,10.2246135 218.789062,9.40820312 C220.242195,8.59179279 221.917959,8.18359375 223.816406,8.18359375 Z" id="@"></path>
                </g>
            </g>
        </g>
    </g>
</svg>