<svg width="554" height="326" viewBox="0 0 554 326" fill="none" xmlns="http://www.w3.org/2000/svg">
<path d="M62.123 126.74C69.2363 126.74 74.883 129.123 79.063 133.89C83.243 138.583 85.333 144.963 85.333 153.03V189H63.773V155.89C63.773 152.37 62.8563 149.62 61.023 147.64C59.1896 145.587 56.733 144.56 53.653 144.56C50.4263 144.56 47.8963 145.587 46.063 147.64C44.2296 149.62 43.313 152.37 43.313 155.89V189H21.753V127.29H43.313V136.09C45.2196 133.303 47.7863 131.067 51.013 129.38C54.2396 127.62 57.943 126.74 62.123 126.74ZM118.833 126.52C123.013 126.52 126.643 127.363 129.723 129.05C132.876 130.737 135.296 133.01 136.983 135.87V127.29H158.543V188.34C158.543 194.133 157.443 199.34 155.243 203.96C153.043 208.653 149.596 212.393 144.903 215.18C140.283 217.967 134.416 219.36 127.303 219.36C117.77 219.36 110.143 217.123 104.423 212.65C98.7031 208.177 95.4398 202.09 94.6331 194.39H115.863C116.303 196.37 117.403 197.91 119.163 199.01C120.923 200.11 123.196 200.66 125.983 200.66C133.316 200.66 136.983 196.553 136.983 188.34V180.42C135.296 183.28 132.876 185.553 129.723 187.24C126.643 188.927 123.013 189.77 118.833 189.77C113.92 189.77 109.446 188.487 105.413 185.92C101.453 183.353 98.2998 179.687 95.9531 174.92C93.6798 170.08 92.5431 164.47 92.5431 158.09C92.5431 151.71 93.6798 146.137 95.9531 141.37C98.2998 136.603 101.453 132.937 105.413 130.37C109.446 127.803 113.92 126.52 118.833 126.52ZM136.983 158.09C136.983 154.13 135.883 151.013 133.683 148.74C131.556 146.467 128.916 145.33 125.763 145.33C122.536 145.33 119.86 146.467 117.733 148.74C115.606 150.94 114.543 154.057 114.543 158.09C114.543 162.05 115.606 165.203 117.733 167.55C119.86 169.823 122.536 170.96 125.763 170.96C128.916 170.96 131.556 169.823 133.683 167.55C135.883 165.277 136.983 162.123 136.983 158.09ZM217.359 141.92V159.85H167.529V141.92H217.359ZM243.002 121.57C239.189 121.57 236.109 120.543 233.762 118.49C231.489 116.363 230.352 113.723 230.352 110.57C230.352 107.343 231.489 104.667 233.762 102.54C236.109 100.413 239.189 99.35 243.002 99.35C246.742 99.35 249.749 100.413 252.022 102.54C254.369 104.667 255.542 107.343 255.542 110.57C255.542 113.723 254.369 116.363 252.022 118.49C249.749 120.543 246.742 121.57 243.002 121.57ZM253.782 195.05C253.782 210.67 245.936 218.48 230.242 218.48H222.432V200.11H227.052C228.886 200.11 230.206 199.743 231.012 199.01C231.819 198.277 232.222 197.067 232.222 195.38V127.29H253.782V195.05ZM261.333 158.09C261.333 151.71 262.47 146.137 264.743 141.37C267.09 136.603 270.243 132.937 274.203 130.37C278.236 127.803 282.71 126.52 287.623 126.52C291.876 126.52 295.543 127.363 298.623 129.05C301.703 130.737 304.086 133.01 305.773 135.87V127.29H327.333V189H305.773V180.42C304.086 183.28 301.666 185.553 298.513 187.24C295.433 188.927 291.803 189.77 287.623 189.77C282.71 189.77 278.236 188.487 274.203 185.92C270.243 183.353 267.09 179.687 264.743 174.92C262.47 170.08 261.333 164.47 261.333 158.09ZM305.773 158.09C305.773 154.13 304.673 151.013 302.473 148.74C300.346 146.467 297.706 145.33 294.553 145.33C291.326 145.33 288.65 146.467 286.523 148.74C284.396 150.94 283.333 154.057 283.333 158.09C283.333 162.05 284.396 165.203 286.523 167.55C288.65 169.823 291.326 170.96 294.553 170.96C297.706 170.96 300.346 169.823 302.473 167.55C304.673 165.277 305.773 162.123 305.773 158.09ZM360.079 135.87C361.765 133.01 364.149 130.737 367.229 129.05C370.309 127.363 373.939 126.52 378.119 126.52C383.032 126.52 387.469 127.803 391.429 130.37C395.462 132.937 398.615 136.603 400.889 141.37C403.235 146.137 404.409 151.71 404.409 158.09C404.409 164.47 403.235 170.08 400.889 174.92C398.615 179.687 395.462 183.353 391.429 185.92C387.469 188.487 383.032 189.77 378.119 189.77C373.939 189.77 370.309 188.927 367.229 187.24C364.222 185.553 361.839 183.28 360.079 180.42V218.48H338.519V127.29H360.079V135.87ZM382.519 158.09C382.519 154.057 381.419 150.94 379.219 148.74C377.092 146.467 374.452 145.33 371.299 145.33C368.145 145.33 365.469 146.467 363.269 148.74C361.142 151.013 360.079 154.13 360.079 158.09C360.079 162.123 361.142 165.277 363.269 167.55C365.469 169.823 368.145 170.96 371.299 170.96C374.452 170.96 377.092 169.823 379.219 167.55C381.419 165.203 382.519 162.05 382.519 158.09ZM408.664 158.09C408.664 151.71 409.801 146.137 412.074 141.37C414.421 136.603 417.574 132.937 421.534 130.37C425.568 127.803 430.041 126.52 434.954 126.52C439.208 126.52 442.874 127.363 445.954 129.05C449.034 130.737 451.418 133.01 453.104 135.87V127.29H474.664V189H453.104V180.42C451.418 183.28 448.998 185.553 445.844 187.24C442.764 188.927 439.134 189.77 434.954 189.77C430.041 189.77 425.568 188.487 421.534 185.92C417.574 183.353 414.421 179.687 412.074 174.92C409.801 170.08 408.664 164.47 408.664 158.09ZM453.104 158.09C453.104 154.13 452.004 151.013 449.804 148.74C447.678 146.467 445.038 145.33 441.884 145.33C438.658 145.33 435.981 146.467 433.854 148.74C431.728 150.94 430.664 154.057 430.664 158.09C430.664 162.05 431.728 165.203 433.854 167.55C435.981 169.823 438.658 170.96 441.884 170.96C445.038 170.96 447.678 169.823 449.804 167.55C452.004 165.277 453.104 162.123 453.104 158.09ZM526.22 126.74C533.333 126.74 538.98 129.123 543.16 133.89C547.34 138.583 549.43 144.963 549.43 153.03V189H527.87V155.89C527.87 152.37 526.953 149.62 525.12 147.64C523.286 145.587 520.83 144.56 517.75 144.56C514.523 144.56 511.993 145.587 510.16 147.64C508.326 149.62 507.41 152.37 507.41 155.89V189H485.85V127.29H507.41V136.09C509.316 133.303 511.883 131.067 515.11 129.38C518.336 127.62 522.04 126.74 526.22 126.74Z" fill="white"/>
<path d="M292.186 292.73C299.3 287.157 305.13 282.353 309.676 278.32C314.223 274.287 318.036 270.143 321.116 265.89C324.196 261.563 325.736 257.457 325.736 253.57C325.736 251.223 325.186 249.39 324.086 248.07C323.06 246.75 321.52 246.09 319.466 246.09C317.34 246.09 315.69 247.007 314.516 248.84C313.343 250.6 312.793 253.203 312.866 256.65H291.966C292.186 250.123 293.616 244.733 296.256 240.48C298.896 236.153 302.343 233 306.596 231.02C310.85 228.967 315.58 227.94 320.786 227.94C329.806 227.94 336.516 230.177 340.916 234.65C345.316 239.123 347.516 244.917 347.516 252.03C347.516 259.657 344.95 266.807 339.816 273.48C334.756 280.153 328.413 286.13 320.786 291.41H348.286V308.9H292.186V292.73ZM354.373 268.64C354.373 256.027 356.94 246.09 362.073 238.83C367.207 231.57 375.273 227.94 386.273 227.94C397.273 227.94 405.34 231.57 410.473 238.83C415.68 246.09 418.283 256.027 418.283 268.64C418.283 281.4 415.717 291.41 410.583 298.67C405.45 305.93 397.347 309.56 386.273 309.56C375.2 309.56 367.097 305.93 361.963 298.67C356.903 291.41 354.373 281.4 354.373 268.64ZM396.943 268.64C396.943 262.04 396.247 257.017 394.853 253.57C393.46 250.05 390.6 248.29 386.273 248.29C381.947 248.29 379.087 250.05 377.693 253.57C376.3 257.017 375.603 262.04 375.603 268.64C375.603 275.387 376.263 280.52 377.583 284.04C378.977 287.487 381.873 289.21 386.273 289.21C390.673 289.21 393.533 287.487 394.853 284.04C396.247 280.52 396.943 275.387 396.943 268.64ZM424.908 292.73C432.021 287.157 437.851 282.353 442.398 278.32C446.945 274.287 450.758 270.143 453.838 265.89C456.918 261.563 458.458 257.457 458.458 253.57C458.458 251.223 457.908 249.39 456.808 248.07C455.781 246.75 454.241 246.09 452.188 246.09C450.061 246.09 448.411 247.007 447.238 248.84C446.065 250.6 445.515 253.203 445.588 256.65H424.688C424.908 250.123 426.338 244.733 428.978 240.48C431.618 236.153 435.065 233 439.318 231.02C443.571 228.967 448.301 227.94 453.508 227.94C462.528 227.94 469.238 230.177 473.638 234.65C478.038 239.123 480.238 244.917 480.238 252.03C480.238 259.657 477.671 266.807 472.538 273.48C467.478 280.153 461.135 286.13 453.508 291.41H481.008V308.9H424.908V292.73ZM487.095 268.64C487.095 256.027 489.662 246.09 494.795 238.83C499.928 231.57 507.995 227.94 518.995 227.94C529.995 227.94 538.062 231.57 543.195 238.83C548.402 246.09 551.005 256.027 551.005 268.64C551.005 281.4 548.438 291.41 543.305 298.67C538.172 305.93 530.068 309.56 518.995 309.56C507.922 309.56 499.818 305.93 494.685 298.67C489.625 291.41 487.095 281.4 487.095 268.64ZM529.665 268.64C529.665 262.04 528.968 257.017 527.575 253.57C526.182 250.05 523.322 248.29 518.995 248.29C514.668 248.29 511.808 250.05 510.415 253.57C509.022 257.017 508.325 262.04 508.325 268.64C508.325 275.387 508.985 280.52 510.305 284.04C511.698 287.487 514.595 289.21 518.995 289.21C523.395 289.21 526.255 287.487 527.575 284.04C528.968 280.52 529.665 275.387 529.665 268.64Z" fill="white"/>
<path d="M384.692 27.74C392.465 27.74 398.552 30.0867 402.952 34.78C407.425 39.4733 409.662 45.89 409.662 54.03V90H388.102V56.89C388.102 53.59 387.185 51.0233 385.352 49.19C383.519 47.3567 381.025 46.44 377.872 46.44C374.719 46.44 372.225 47.3567 370.392 49.19C368.559 51.0233 367.642 53.59 367.642 56.89V90H346.082V56.89C346.082 53.59 345.165 51.0233 343.332 49.19C341.572 47.3567 339.115 46.44 335.962 46.44C332.735 46.44 330.205 47.3567 328.372 49.19C326.539 51.0233 325.622 53.59 325.622 56.89V90H304.062V28.29H325.622V36.43C327.529 33.79 329.985 31.7 332.992 30.16C336.072 28.5467 339.592 27.74 343.552 27.74C348.099 27.74 352.132 28.73 355.652 30.71C359.245 32.69 362.069 35.4767 364.122 39.07C366.322 35.6967 369.219 32.9833 372.812 30.93C376.405 28.8033 380.365 27.74 384.692 27.74ZM431.264 22.57C427.451 22.57 424.371 21.5433 422.024 19.49C419.751 17.3633 418.614 14.7233 418.614 11.57C418.614 8.34333 419.751 5.66666 422.024 3.54C424.371 1.41333 427.451 0.349994 431.264 0.349994C435.004 0.349994 438.011 1.41333 440.284 3.54C442.631 5.66666 443.804 8.34333 443.804 11.57C443.804 14.7233 442.631 17.3633 440.284 19.49C438.011 21.5433 435.004 22.57 431.264 22.57ZM441.934 28.29V90H420.374V28.29H441.934ZM493.482 27.74C500.595 27.74 506.242 30.1233 510.422 34.89C514.602 39.5833 516.692 45.9633 516.692 54.03V90H495.132V56.89C495.132 53.37 494.215 50.62 492.382 48.64C490.549 46.5867 488.092 45.56 485.012 45.56C481.785 45.56 479.255 46.5867 477.422 48.64C475.589 50.62 474.672 53.37 474.672 56.89V90H453.112V28.29H474.672V37.09C476.579 34.3033 479.145 32.0667 482.372 30.38C485.599 28.62 489.302 27.74 493.482 27.74ZM538.312 22.57C534.499 22.57 531.419 21.5433 529.072 19.49C526.799 17.3633 525.662 14.7233 525.662 11.57C525.662 8.34333 526.799 5.66666 529.072 3.54C531.419 1.41333 534.499 0.349994 538.312 0.349994C542.052 0.349994 545.059 1.41333 547.332 3.54C549.679 5.66666 550.852 8.34333 550.852 11.57C550.852 14.7233 549.679 17.3633 547.332 19.49C545.059 21.5433 542.052 22.57 538.312 22.57ZM548.982 28.29V90H527.422V28.29H548.982Z" fill="white"/>
</svg>
