<?xml version="1.0" encoding="UTF-8"?>
<svg width="628px" height="97px" viewBox="0 0 628 97" version="1.1" xmlns="http://www.w3.org/2000/svg" xmlns:xlink="http://www.w3.org/1999/xlink">
    <!-- Generator: Sketch 48.2 (47327) - http://www.bohemiancoding.com/sketch -->
    <title>content__copy</title>
    <desc>Created with Sketch.</desc>
    <defs></defs>
    <g id="PC（EN）" stroke="none" stroke-width="1" fill="none" fill-rule="evenodd" transform="translate(-387.000000, -129.000000)">
        <g id="Firstview" fill="#FFFFFF">
            <g id="content" transform="translate(387.000000, 129.000000)">
                <g id="content__copy">
                    <path d="M164.396,15.152 C162.547991,13.5093251 161.624,11.4560123 161.624,8.992 C161.624,6.41065376 162.547991,4.28400836 164.396,2.612 C166.244009,0.93999164 168.693318,0.104 171.744,0.104 C174.794682,0.104 177.243991,0.93999164 179.092,2.612 C180.940009,4.28400836 181.864,6.41065376 181.864,8.992 C181.864,11.4560123 180.940009,13.5093251 179.092,15.152 C177.243991,16.7946749 174.794682,17.616 171.744,17.616 C168.693318,17.616 166.244009,16.7946749 164.396,15.152 Z M155.376,80.8 L159.072,80.8 C160.538674,80.8 161.594663,80.4920031 162.24,79.876 C162.885337,79.2599969 163.208,78.2773401 163.208,76.928 L163.208,22.632 L180.456,22.632 L180.456,76.664 C180.456,89.2773964 174.120063,95.584 161.448,95.584 L155.376,95.584 L155.376,80.8 Z M217.196,24.26 C219.748013,25.7560075 221.639994,27.8239868 222.872,30.464 L222.872,22.632 L240.12,22.632 L240.12,72 L222.872,72 L222.872,64.168 C221.639994,66.8080132 219.748013,68.8759925 217.196,70.372 C214.643987,71.8680075 211.637351,72.616 208.176,72.616 C204.245314,72.616 200.696016,71.6040101 197.528,69.58 C194.359984,67.5559899 191.866676,64.6226859 190.048,60.78 C188.229324,56.9373141 187.32,52.4346925 187.32,47.272 C187.32,42.1093075 188.229324,37.6213524 190.048,33.808 C191.866676,29.9946476 194.359984,27.0760101 197.528,25.052 C200.696016,23.0279899 204.245314,22.016 208.176,22.016 C211.637351,22.016 214.643987,22.7639925 217.196,24.26 Z M207.34,39.836 C205.667992,41.6253423 204.832,44.1039842 204.832,47.272 C204.832,50.4986828 205.667992,53.0066577 207.34,54.796 C209.012008,56.5853423 211.19732,57.48 213.896,57.48 C216.477346,57.48 218.618658,56.5706758 220.32,54.752 C222.021342,52.9333242 222.872,50.4400158 222.872,47.272 C222.872,44.1626511 222.021342,41.6986758 220.32,39.88 C218.618658,38.0613242 216.477346,37.152 213.896,37.152 C211.19732,37.152 209.012008,38.0466577 207.34,39.836 Z M292.216,25.052 C295.384016,27.0760101 297.877324,29.9946476 299.696,33.808 C301.514676,37.6213524 302.424,42.1093075 302.424,47.272 C302.424,52.4346925 301.514676,56.9373141 299.696,60.78 C297.877324,64.6226859 295.384016,67.5559899 292.216,69.58 C289.047984,71.6040101 285.498686,72.616 281.568,72.616 C278.106649,72.616 275.114679,71.8680075 272.592,70.372 C270.069321,68.8759925 268.192006,66.8080132 266.96,64.168 L266.96,95.584 L249.624,95.584 L249.624,22.632 L266.96,22.632 L266.96,30.464 C268.192006,27.8239868 270.069321,25.7560075 272.592,24.26 C275.114679,22.7639925 278.106649,22.016 281.568,22.016 C285.498686,22.016 289.047984,23.0279899 292.216,25.052 Z M269.424,39.88 C267.722658,41.6986758 266.872,44.1626511 266.872,47.272 C266.872,50.4400158 267.722658,52.9333242 269.424,54.752 C271.125342,56.5706758 273.266654,57.48 275.848,57.48 C278.54668,57.48 280.731992,56.5853423 282.404,54.796 C284.076008,53.0066577 284.912,50.4986828 284.912,47.272 C284.912,44.1039842 284.076008,41.6253423 282.404,39.836 C280.731992,38.0466577 278.54668,37.152 275.848,37.152 C273.266654,37.152 271.125342,38.0613242 269.424,39.88 Z M336.7,24.26 C339.252013,25.7560075 341.143994,27.8239868 342.376,30.464 L342.376,22.632 L359.624,22.632 L359.624,72 L342.376,72 L342.376,64.168 C341.143994,66.8080132 339.252013,68.8759925 336.7,70.372 C334.147987,71.8680075 331.141351,72.616 327.68,72.616 C323.749314,72.616 320.200016,71.6040101 317.032,69.58 C313.863984,67.5559899 311.370676,64.6226859 309.552,60.78 C307.733324,56.9373141 306.824,52.4346925 306.824,47.272 C306.824,42.1093075 307.733324,37.6213524 309.552,33.808 C311.370676,29.9946476 313.863984,27.0760101 317.032,25.052 C320.200016,23.0279899 323.749314,22.016 327.68,22.016 C331.141351,22.016 334.147987,22.7639925 336.7,24.26 Z M326.844,39.836 C325.171992,41.6253423 324.336,44.1039842 324.336,47.272 C324.336,50.4986828 325.171992,53.0066577 326.844,54.796 C328.516008,56.5853423 330.70132,57.48 333.4,57.48 C335.981346,57.48 338.122658,56.5706758 339.824,54.752 C341.525342,52.9333242 342.376,50.4400158 342.376,47.272 C342.376,44.1626511 341.525342,41.6986758 339.824,39.88 C338.122658,38.0613242 335.981346,37.152 333.4,37.152 C330.70132,37.152 328.516008,38.0466577 326.844,39.836 Z M415.504,27.868 C418.730683,31.6520189 420.344,36.7999674 420.344,43.312 L420.344,72 L403.184,72 L403.184,45.512 C403.184,42.637319 402.436007,40.3933414 400.94,38.78 C399.443993,37.1666586 397.434679,36.36 394.912,36.36 C392.330654,36.36 390.277341,37.1959916 388.752,38.868 C387.226659,40.5400084 386.464,42.842652 386.464,45.776 L386.464,72 L369.128,72 L369.128,22.632 L386.464,22.632 L386.464,30.904 C387.872007,28.2639868 389.92532,26.1520079 392.624,24.568 C395.32268,22.9839921 398.490648,22.192 402.128,22.192 C407.818695,22.192 412.277317,24.0839811 415.504,27.868 Z" id="japan"></path>
                    <path d="M47.128,27.868 C50.3546828,31.6520189 51.968,36.7999674 51.968,43.312 L51.968,72 L34.808,72 L34.808,45.512 C34.808,42.637319 34.0600075,40.3933414 32.564,38.78 C31.0679925,37.1666586 29.0586793,36.36 26.536,36.36 C23.9546538,36.36 21.901341,37.1959916 20.376,38.868 C18.850659,40.5400084 18.088,42.842652 18.088,45.776 L18.088,72 L0.752,72 L0.752,22.632 L18.088,22.632 L18.088,30.904 C19.496007,28.2639868 21.5493198,26.1520079 24.248,24.568 C26.9466802,22.9839921 30.1146485,22.192 33.752,22.192 C39.4426951,22.192 43.9013172,24.0839811 47.128,27.868 Z M88.532,24.26 C91.0840128,25.7560075 92.9759938,27.8239868 94.208,30.464 L94.208,22.632 L111.456,22.632 L111.456,71.472 C111.456,76.0480229 110.576009,80.198648 108.816,83.924 C107.055991,87.649352 104.328018,90.6266555 100.632,92.856 C96.9359815,95.0853445 92.2720282,96.2 86.64,96.2 C78.9546282,96.2 72.8386894,94.4106846 68.292,90.832 C63.7453106,87.2533154 61.0906705,82.3546978 60.328,76.136 L77.312,76.136 C77.7226687,77.7786749 78.6026599,79.0399956 79.952,79.92 C81.3013401,80.8000044 83.1199886,81.24 85.408,81.24 C91.274696,81.24 94.208,77.9840326 94.208,71.472 L94.208,64.168 C92.9759938,66.8080132 91.0840128,68.8759925 88.532,70.372 C85.9799872,71.8680075 82.9733506,72.616 79.512,72.616 C75.5813137,72.616 72.0320158,71.6040101 68.864,69.58 C65.6959842,67.5559899 63.2026758,64.6226859 61.384,60.78 C59.5653242,56.9373141 58.656,52.4346925 58.656,47.272 C58.656,42.1093075 59.5653242,37.6213524 61.384,33.808 C63.2026758,29.9946476 65.6959842,27.0760101 68.864,25.052 C72.0320158,23.0279899 75.5813137,22.016 79.512,22.016 C82.9733506,22.016 85.9799872,22.7639925 88.532,24.26 Z M78.676,39.836 C77.0039916,41.6253423 76.168,44.1039842 76.168,47.272 C76.168,50.4986828 77.0039916,53.0066577 78.676,54.796 C80.3480084,56.5853423 82.5333198,57.48 85.232,57.48 C87.8133462,57.48 89.9546582,56.5706758 91.656,54.752 C93.3573418,52.9333242 94.208,50.4400158 94.208,47.272 C94.208,44.1626511 93.3573418,41.6986758 91.656,39.88 C89.9546582,38.0613242 87.8133462,37.152 85.232,37.152 C82.5333198,37.152 80.3480084,38.0466577 78.676,39.836 Z" id="ng"></path>
                    <path d="M487.494,72 L444.608,72 L444.608,61.012 C468.306,43.874 472.734,40.102 472.734,34.608 C472.734,30.918 469.208,28.95 465.19,28.95 C459.122,28.95 454.53,31.246 450.594,34.936 L442.804,25.588 C448.626,19.192 457.318,16.486 464.944,16.486 C477.818,16.486 487.084,23.702 487.084,34.608 C487.084,43.054 481.098,50.188 467.486,59.7 L487.494,59.7 L487.494,72 Z M516.358,72.984 C500.368,72.984 492.906,59.126 492.906,44.694 C492.906,30.262 500.368,16.486 516.358,16.486 C532.348,16.486 539.81,30.262 539.81,44.694 C539.81,59.126 532.348,72.984 516.358,72.984 Z M516.358,60.52 C522.918,60.52 525.542,54.37 525.542,44.694 C525.542,35.018 522.918,28.95 516.358,28.95 C509.798,28.95 507.174,35.018 507.174,44.694 C507.174,54.37 509.798,60.52 516.358,60.52 Z M573.676,72 L559.572,72 L559.572,35.346 L550.388,44.612 L542.352,36.166 L561.458,17.306 L573.676,17.306 L573.676,72 Z M603.934,72.984 C592.126,72.984 580.728,68.31 580.728,57.568 C580.728,51.336 585.484,46.252 591.798,43.792 C585.976,41.578 581.63,37.642 581.63,31.082 C581.63,20.504 593.274,16.486 603.934,16.486 C614.594,16.486 626.238,20.504 626.238,31.082 C626.238,37.642 621.892,41.578 615.988,43.792 C622.384,46.252 627.14,51.336 627.14,57.568 C627.14,68.228 615.742,72.984 603.934,72.984 Z M603.934,38.298 C607.296,37.806 611.806,36.248 611.806,33.46 C611.806,30.59 608.69,28.95 603.934,28.95 C599.178,28.95 595.98,30.59 595.98,33.46 C595.98,36.248 600.572,37.806 603.934,38.298 Z M603.934,60.52 C609.018,60.52 612.79,58.552 612.79,55.6 C612.79,52.32 607.378,50.598 603.934,50.188 C600.408,50.598 595.078,52.32 595.078,55.6 C595.078,58.552 598.686,60.52 603.934,60.52 Z" id="2018"></path>
                    <rect id="Rectangle-14" x="123" y="40" width="26" height="16"></rect>
                </g>
            </g>
        </g>
    </g>
</svg>