<svg xmlns="http://www.w3.org/2000/svg" width="600" height="412" viewBox="0 0 600 412"><path fill-rule="evenodd" clip-rule="evenodd" fill="#E44D26" d="M142.476 143.37v.02l142.41 142.38-64.73-142.41H64.8L.11 285.77z"/><path fill="#F16529" d="M.11.973L64.824 143.36h155.358L284.887.972 142.497 143.37v-.02z"/><path fill-rule="evenodd" clip-rule="evenodd" fill="#369CD6" d="M599.774.99L457.364 65.72v155.36l142.415 64.692-142.427-142.368h.02z"/><path fill="#2162AF" d="M314.996 285.77l142.387-64.718V65.695L315 .99l142.394 142.392h-.02z"/><g fill="#231815"><path d="M40.27 389.736H28.333v-27.92H12.578v27.92H.642v-63.68h11.936v25.306h15.756v-25.307H40.27v63.68zM71.297 389.736H59.404v-53.268H47.116v-10.413h36.47v10.413h-12.29v53.268zM113.34 389.736l-12.202-54.23h-.483c.556 4.183.834 8.017.834 11.5v42.73H90.43v-63.68h18.345l10.972 50.046h.352l10.88-50.047h18.608v63.68h-11.32v-43.162c0-3.57.204-7.23.613-10.98h-.35l-12.156 54.144H113.34zM160.912 389.736v-63.68h11.936v53.312h16.544v10.367h-28.48zM213.31 349.88c4.828 0 8.668 1.674 11.52 5.013 2.854 3.338 4.28 7.91 4.28 13.72 0 6.938-1.777 12.34-5.333 16.203-3.554 3.858-8.49 5.79-14.81 5.79-5.618 0-10.168-1.062-13.65-3.18v-11.06c1.493 1.07 3.417 2.02 5.773 2.852 2.354.823 4.54 1.238 6.56 1.238 6.29 0 9.436-3.626 9.436-10.888 0-6.767-3.058-10.15-9.173-10.15-2.428 0-5.002.466-7.723 1.396l-3.863-2.832 1.975-31.927h27.385v10.585h-17.16l-.876 13.765c1.638-.347 3.524-.524 5.66-.524zM289.757 389.736H260.84v-63.68h28.917v10.235h-16.983v15.157h15.756v10.28h-15.756v17.64h16.983v10.37zM306.828 364.95l-12.198-23.738h12.112l6.494 14.812 6.014-14.812h12.025l-12.29 23.74 12.816 24.784H319.6l-6.934-15.506-6.447 15.506H294.06l12.768-24.785zM359.228 390.605c-2.104 0-3.97-.47-5.594-1.415-1.624-.94-3.14-2.604-4.542-4.986h-.616c.47 3.95.702 6.33.702 7.14v19.82h-11.763v-69.952h9.042l2.02 6.317H349c2.433-4.82 5.956-7.23 10.58-7.23 4.444 0 7.924 2.186 10.442 6.556 2.52 4.37 3.772 10.544 3.772 18.53 0 7.868-1.3 14.043-3.904 18.514s-6.16 6.705-10.664 6.705zm-3.597-40.46c-2.28 0-3.93 1.05-4.935 3.154-1.012 2.108-1.548 5.598-1.604 10.478v1.522c0 5.346.512 9.234 1.534 11.672 1.026 2.443 2.726 3.66 5.092 3.66 4.097 0 6.146-5.142 6.146-15.418 0-5.052-.506-8.825-1.513-11.323-1.01-2.497-2.584-3.746-4.72-3.746zM400.044 390.605c-6.114 0-10.935-2.153-14.464-6.467-3.524-4.314-5.284-10.418-5.284-18.317 0-8.01 1.593-14.267 4.784-18.77 3.186-4.498 7.636-6.748 13.34-6.748 5.326 0 9.523 1.922 12.593 5.77 3.075 3.85 4.607 9.24 4.607 16.18v6.185h-23.476c.086 4.33.98 7.545 2.675 9.65 1.7 2.103 4.035 3.154 7.024 3.154 3.803 0 7.69-1.173 11.672-3.524v9.54c-3.746 2.233-8.24 3.35-13.472 3.35zm-1.715-41.376c-1.664 0-3.04.88-4.123 2.633-1.08 1.76-1.714 4.48-1.886 8.168h11.85c-.06-3.54-.602-6.23-1.628-8.056-1.02-1.83-2.428-2.745-4.213-2.745zM444.193 340.302c1.432 0 2.838.218 4.213.652l-1.36 11.237c-.82-.292-1.887-.434-3.206-.434-2.837 0-5.017 1.107-6.54 3.327-1.52 2.226-2.28 5.457-2.28 9.695v24.957h-11.672V341.21h9.608l1.314 7.582h.4c1.284-3.05 2.69-5.23 4.213-6.533 1.517-1.306 3.287-1.958 5.31-1.958zM470.613 380.806c1.638 0 3.407-.405 5.31-1.22v9.058c-1.902 1.31-4.755 1.962-8.557 1.962-4.243 0-7.39-1.253-9.438-3.767-2.048-2.515-3.074-6.282-3.074-11.305v-25.13h-4.74v-5.184l6.1-4.18 2.99-10.282h7.46v10.453h8.864v9.194h-8.865v25.525c0 3.253 1.315 4.876 3.95 4.876zM509.012 375.535c0 4.733-1.4 8.43-4.192 11.086-2.79 2.656-6.913 3.985-12.355 3.985-4.824 0-8.818-.944-11.98-2.832v-10.06c1.608 1.105 3.49 2.02 5.64 2.742 2.154.73 4.046 1.093 5.685 1.093 1.815 0 3.196-.445 4.146-1.33.95-.885 1.427-2.054 1.427-3.504 0-1.482-.496-2.777-1.492-3.88s-2.82-2.452-5.486-4.05c-3.54-2.09-6.073-4.32-7.61-6.687-1.538-2.367-2.307-5.158-2.307-8.385 0-4.122 1.426-7.39 4.278-9.8 2.852-2.408 6.767-3.612 11.743-3.612 4.328 0 8.41 1.128 12.243 3.394l-3.817 8.32c-3.13-1.686-5.88-2.524-8.253-2.524-1.492 0-2.61.39-3.358 1.173-.744.784-1.117 1.745-1.117 2.877 0 1.306.46 2.47 1.386 3.485.92 1.017 2.64 2.28 5.154 3.788 3.044 1.83 5.178 3.383 6.407 4.662 1.23 1.274 2.18 2.727 2.854 4.354.67 1.625 1.008 3.526 1.008 5.705zM516.295 383.77c0-2.266.606-4.022 1.82-5.27 1.213-1.25 3.024-1.877 5.422-1.877 2.396 0 4.212.616 5.44 1.85 1.23 1.24 1.847 3 1.847 5.296 0 2.265-.638 4.02-1.912 5.27-1.27 1.248-3.064 1.87-5.375 1.87-2.367 0-4.168-.632-5.396-1.89-1.23-1.266-1.845-3.016-1.845-5.25zM539.204 411.164c-2.458 0-4.49-.364-6.1-1.088v-9.628c1.346.524 2.604.783 3.773.783 2.75 0 4.126-2.467 4.126-7.403v-52.615h11.673v54.144c0 5.052-1.18 8.95-3.53 11.69-2.356 2.747-5.67 4.118-9.942 4.118zm1.36-82.625c0-1.918.56-3.436 1.69-4.553 1.126-1.117 2.685-1.674 4.67-1.674 1.963 0 3.5.566 4.613 1.693 1.108 1.134 1.664 2.646 1.664 4.532 0 1.946-.565 3.47-1.71 4.57-1.14 1.11-2.664 1.66-4.565 1.66-1.9 0-3.434-.536-4.606-1.613-1.17-1.07-1.757-2.613-1.757-4.616zM584.405 390.605c-2.104 0-3.97-.47-5.593-1.415-1.623-.94-3.142-2.604-4.542-4.986h-.617c.47 3.95.704 6.33.704 7.14v19.82h-11.764v-69.952h9.042l2.018 6.317h.526c2.432-4.82 5.956-7.23 10.58-7.23 4.444 0 7.924 2.186 10.442 6.556s3.77 10.544 3.77 18.53c0 7.868-1.298 14.043-3.902 18.514s-6.16 6.705-10.665 6.705zm-3.595-40.46c-2.28 0-3.93 1.05-4.936 3.154-1.012 2.108-1.548 5.598-1.604 10.478v1.522c0 5.346.51 9.234 1.532 11.672 1.027 2.443 2.726 3.66 5.093 3.66 4.097 0 6.145-5.142 6.145-15.418 0-5.052-.506-8.825-1.513-11.323-1.01-2.497-2.584-3.746-4.717-3.746z"/></g></svg>