<svg xmlns="http://www.w3.org/2000/svg" width="72" height="51.217" viewBox="0 0 72 51.217"><g><path fill="#393939" d="M18 0h36v36H18z"/><path fill="#F0B119" d="M24 25.24h4.643v4.644H24zM24 15.954h14.323v4.643H24zM24 6.668h23.233v4.643H24zM33.68 15.954h4.642V30H33.68zM42.59 6.668h4.643v23.217H42.59z"/><g fill="#514E47"><path d="M8.142 44.423H4.826v6.794H3.322v-6.794H0v-1.505h8.142v1.505zM16.747 51.217H11.32c-.21 0-.437-.037-.684-.11s-.475-.194-.685-.362c-.21-.168-.385-.386-.526-.654-.14-.267-.212-.596-.212-.986v-5.428c0-.104.02-.203.058-.295s.093-.173.16-.242c.068-.07.147-.123.24-.162.092-.04.192-.058.3-.058h6.776v1.505h-6.03v4.682c0 .197.052.347.156.45.104.105.257.157.457.157h5.415v1.505zm-.677-3.39h-4.75V46.31h4.75v1.516zM25.578 51.217H20.15c-.14 0-.287-.016-.448-.05-.16-.032-.318-.083-.475-.152-.156-.07-.307-.16-.45-.27-.142-.11-.267-.242-.377-.398-.11-.156-.2-.338-.264-.544-.066-.206-.098-.44-.098-.697v-4.074c0-.14.017-.288.05-.448.033-.16.083-.318.152-.475s.16-.307.272-.45.247-.268.403-.378c.156-.11.336-.198.54-.263.204-.067.436-.1.694-.1h5.427v1.506H20.15c-.197 0-.347.052-.45.156-.105.104-.157.258-.157.463v4.062c0 .193.054.342.16.448.106.106.255.16.448.16h5.43v1.502zM28.518 46.31H33.8v-3.39h1.506v8.297H33.8v-3.39H28.52v3.39h-1.505V42.92h1.505v3.39zM44.6 44.423h-6.03v6.794h-1.506v-7.54c0-.104.02-.203.058-.295s.093-.174.16-.243c.068-.07.147-.124.24-.163.092-.04.192-.058.3-.058h6.776v1.503zm-.672 3.403H39.17V46.31h4.758v1.516zM53.314 51.217h-5.428c-.208 0-.436-.037-.683-.11s-.475-.194-.685-.362c-.21-.168-.386-.386-.527-.654s-.21-.596-.21-.986v-5.428c0-.104.018-.203.057-.295s.093-.173.16-.242c.068-.07.147-.123.24-.162.092-.04.192-.058.3-.058h6.776v1.505h-6.03v4.682c0 .197.052.347.156.45.103.105.256.157.456.157h5.416v1.505zm-.677-3.39h-4.75V46.31h4.75v1.516zM62.266 51.217h-5.428c-.208 0-.436-.037-.683-.11s-.475-.194-.685-.362c-.21-.168-.386-.386-.527-.654s-.212-.596-.212-.986v-5.428c0-.104.02-.203.06-.295s.092-.173.16-.242c.067-.07.146-.123.238-.162.093-.04.193-.058.3-.058h6.777v1.505h-6.03v4.682c0 .197.052.347.156.45.105.105.258.157.458.157h5.416v1.505zm-.677-3.39h-4.752V46.31h4.75v1.516zM72 47.745c0 .505-.087.97-.262 1.395-.176.424-.42.79-.727 1.097-.308.307-.674.547-1.1.72-.423.174-.884.26-1.382.26h-4.062c-.108 0-.208-.02-.3-.058-.094-.04-.173-.093-.24-.16s-.122-.148-.16-.24c-.04-.093-.058-.193-.058-.3v-6.783c0-.104.02-.203.058-.295.04-.093.093-.174.16-.243.068-.07.147-.124.24-.163.092-.04.192-.058.3-.058h4.062c.498 0 .96.086 1.383.26.425.173.792.413 1.1.72.31.306.553.672.728 1.1.175.425.262.89.262 1.39v1.355zm-1.505-1.354c0-.292-.046-.56-.14-.803-.096-.243-.23-.45-.404-.622-.173-.172-.38-.305-.62-.4s-.51-.14-.802-.14h-3.316v5.288h3.316c.293 0 .56-.047.802-.142.24-.094.448-.227.62-.398.175-.172.31-.378.404-.62.095-.24.14-.51.14-.806V46.39z"/></g></g></svg>