<?xml version="1.0" encoding="UTF-8"?>
<svg width="132px" height="23px" viewBox="0 0 132 23" version="1.1" xmlns="http://www.w3.org/2000/svg" xmlns:xlink="http://www.w3.org/1999/xlink">
    <!-- Generator: Sketch 52.6 (67491) - http://www.bohemiancoding.com/sketch -->
    <title>Group 30</title>
    <desc>Created with Sketch.</desc>
    <g id="Symbols" stroke="none" stroke-width="1" fill="none" fill-rule="evenodd">
        <g id="logo">
            <g id="Group-30">
                <polygon id="Fill-1" fill="#000000" points="27 7.9159173 29.9119438 7.9159173 29.9119438 17 32.0880562 14.8525086 32.0880562 7.9159173 33.0590164 7.9159173 35 6 27 6"></polygon>
                <path d="M131.907402,9.09009539 C131.845361,8.71937639 131.737022,8.36391142 131.582383,8.02370047 C131.427745,7.68395176 131.195324,7.35991932 130.886047,7.05067866 C130.524915,6.69012901 130.094334,6.42480145 129.593842,6.25515821 C129.09335,6.08505274 128.55443,6 127.976619,6 L124,6 L124,17 L126.150587,17 L126.150587,15.0844644 L126.150587,13.7153002 L126.150587,7.91553557 L127.775218,7.91553557 C128.146999,7.91553557 128.461832,7.97285372 128.719255,8.08564105 C128.97714,8.19935286 129.199375,8.36899609 129.385034,8.59549523 C129.487818,8.71937639 129.57023,8.85851158 129.63227,9.01290079 C129.694311,9.16728999 129.741073,9.35819641 129.77163,9.58423331 C129.802651,9.81119469 129.823485,10.07606 129.833671,10.380216 C129.843857,10.6839097 129.849413,11.0421482 129.849413,11.4540068 C129.849413,12.2878934 129.820707,12.9267135 129.763759,13.3695424 C129.707275,13.8123713 129.580879,14.1576669 129.385034,14.4045048 C129.199375,14.6314662 128.97714,14.8011094 128.719255,14.914359 C128.680363,14.9314619 128.637768,14.944867 128.596562,14.9591965 L126.552463,17 L127.976619,17 C128.55443,17 129.09335,16.9149473 129.593842,16.745304 C130.094334,16.5751986 130.524915,16.3103332 130.886047,15.9497836 C131.195324,15.6405429 131.427745,15.3109636 131.582383,14.9605833 C131.737022,14.6106652 131.845361,14.2450309 131.907402,13.8641425 C131.96898,13.4827919 132,13.091272 132,12.6895827 L132,11.4540068 L132,10.2484767 C132,9.84724965 131.96898,9.46081439 131.907402,9.09009539" id="Fill-2" fill="#231815"></path>
                <path d="M60.6182483,6.85825275 C60.2669864,6.56959253 59.8700468,6.35457476 59.4278863,6.21274485 C58.9848122,6.07091495 58.5088501,6 58.0004568,6 C57.3993377,6 56.8575996,6.10137201 56.3738723,6.30366146 C55.8906018,6.50640549 55.4557497,6.80006612 55.0688592,7.18509794 C54.7938792,7.45830234 54.5823912,7.74969006 54.4353089,8.05835193 C54.2877698,8.36746839 54.1836245,8.69931399 54.1224164,9.05388875 C54.061665,9.40846351 54.0251228,9.78804033 54.0155304,10.1930738 C54.0050246,10.5985619 54,11.034507 54,11.5 C54,11.9659476 54.0050246,12.4014381 54.0155304,12.8064716 C54.0251228,13.2119597 54.061665,13.5915365 54.1224164,13.9461112 C54.1836245,14.300686 54.2877698,14.6325316 54.4353089,14.9411935 C54.5823912,15.2503099 54.7938792,15.5416977 55.0688592,15.8149021 C55.4557497,16.1999339 55.8906018,16.4935945 56.3738723,16.695884 C56.8575996,16.898628 57.3993377,17 58.0004568,17 C58.4983442,17 58.9720224,16.929085 59.4196643,16.7872551 C59.8673062,16.6454252 60.2669864,16.4299529 60.6182483,16.1417473 C60.9695101,15.853087 61.2645883,15.4957848 61.5034829,15.0702951 C61.7428343,14.6448054 61.9081877,14.1488553 62,13.5815357 L59.8476647,13.5815357 C59.7348407,14.0170262 59.5365993,14.3816018 59.2520269,14.6752624 C58.9669978,14.9693776 58.5545278,15.116208 58.0155304,15.116208 C57.7199954,15.116208 57.458262,15.0657492 57.2289597,14.9639226 C57.0001142,14.8630052 56.8091812,14.7261757 56.6566176,14.5538888 C56.5547562,14.4425159 56.4684253,14.3184147 56.397168,14.1815853 C56.3259107,14.0452103 56.2697271,13.8651955 56.2295307,13.6419952 C56.1884207,13.4197041 56.1605573,13.1360443 56.1450268,12.7914704 C56.1299532,12.4468964 56.122188,12.0168609 56.122188,11.5 C56.122188,10.9831391 56.1299532,10.5531036 56.1450268,10.2085296 C56.1605573,9.8639557 56.1884207,9.58075048 56.2295307,9.35800479 C56.2697271,9.13480453 56.3259107,8.95478965 56.397168,8.81841475 C56.4684253,8.68158525 56.5547562,8.55748409 56.6566176,8.44611125 C56.8091812,8.27382428 57.0001142,8.13699479 57.2289597,8.03562278 C57.458262,7.93470535 57.7199954,7.88379205 58.0155304,7.88379205 C58.5545278,7.88379205 58.9669978,8.03107695 59.2520269,8.324283 C59.5365993,8.61839821 59.7348407,8.9829738 59.8476647,9.41846434 L61.4427315,7.83060584 C61.2143428,7.44966526 60.9411899,7.12372923 60.6182483,6.85825275" id="Fill-4" fill="#000000"></path>
                <polygon id="Fill-6" fill="#000000" points="43.0747687 7.9159173 46.1494099 7.9159173 48 6 41 6 41 17 46.1494099 17 48 15.0840827 43.0747687 15.0840827"></polygon>
                <polygon id="Fill-8" fill="#000000" points="44 12 44 12 46 10 44 10"></polygon>
                <polygon id="Fill-10" fill="#000000" points="99.0747687 7.9159173 102.14941 7.9159173 104 6 97 6 97 17 102.14941 17 104 15.0840827 99.0747687 15.0840827"></polygon>
                <polygon id="Fill-12" fill="#000000" points="100 12 100 12 102 10 100 10"></polygon>
                <polygon id="Fill-14" fill="#000000" points="113.074769 7.9159173 116.14941 7.9159173 118 6 111 6 111 17 116.14941 17 118 15.0840827 113.074769 15.0840827"></polygon>
                <polygon id="Fill-16" fill="#000000" points="114 12 114 12 116 10 114 10"></polygon>
                <polygon id="Fill-18" fill="#000000" points="86 12 86 12 88 10 86 10"></polygon>
                <polygon id="Fill-20" fill="#000000" points="83 6 83 17 85.0746364 14.8524184 85.0746364 7.91599781 88.1490814 7.91599781 90 6"></polygon>
                <polygon id="Fill-22" fill="#000000" points="74.8572582 8.14749139 74.8572582 10.4960501 71.1422806 10.4960501 71.1422806 6 69 6 69 17 71.1422806 14.8525086 71.1422806 12.3962518 74.8572582 12.3962518 74.8572582 17 77 14.8525086 77 6"></polygon>
                <polygon id="Fill-27" fill="#000000" points="15 8 8 8 8 15"></polygon>
                <polygon id="Fill-24" fill="#000000" points="23 0.000924418721 0.00138662808 0 0.00138662808 0.000924418721 0 0.000924418721 0.00138662808 23 4.424268 18.5771186 4.424268 4.42334358 18.5775808 4.42334358"></polygon>
            </g>
        </g>
    </g>
</svg>